<?xml version="1.0" encoding="utf-8"?>
<!-- Generator: Adobe Illustrator 21.0.0, SVG Export Plug-In . SVG Version: 6.00 Build 0)  -->
<svg version="1.1" id="Layer_1" xmlns="http://www.w3.org/2000/svg"
    xmlns:xlink="http://www.w3.org/1999/xlink" x="0px" y="0px"
    viewBox="0 0 512 512" style="enable-background:new 0 0 512 512;" xml:space="preserve">
<g>
	<path d="M137.8,18.5L0,87.5v406h275.7H512V139H275.7V87.5L137.8,18.5z M137.8,62.5l98.5,49.2v342.3H39.4V111.8L137.8,62.5z
		 M78.8,139v39.4h39.4V139H78.8z M157.5,139v39.4h39.4V139H157.5z M275.7,178.4h196.9v275.7H275.7V178.4z M78.8,217.8v39.4h39.4
		v-39.4H78.8z M157.5,217.8v39.4h39.4v-39.4H157.5z M315.1,217.8v39.4h39.4v-39.4H315.1z M393.8,217.8v39.4h39.4v-39.4H393.8z
		 M78.8,296.5v39.4h39.4v-39.4H78.8z M157.5,296.5v39.4h39.4v-39.4H157.5z M315.1,296.5v39.4h39.4v-39.4H315.1z M393.8,296.5v39.4
		h39.4v-39.4H393.8z M78.8,375.3v39.4h39.4v-39.4H78.8z M157.5,375.3v39.4h39.4v-39.4H157.5z M315.1,375.3v39.4h39.4v-39.4H315.1z
		 M393.8,375.3v39.4h39.4v-39.4H393.8z"/>
</g>
</svg>